<mxfile host="65bd71144e" scale="3" border="5">
    <diagram id="o_8-9EERW-NrNKcBEaz3" name="Page-1">
        <mxGraphModel dx="1461" dy="663" grid="1" gridSize="10" guides="1" tooltips="1" connect="1" arrows="1" fold="1" page="1" pageScale="1" pageWidth="1654" pageHeight="2336" math="0" shadow="0">
            <root>
                <mxCell id="0"/>
                <mxCell id="1" parent="0"/>
                <mxCell id="2" value="" style="rounded=1;whiteSpace=wrap;html=1;" parent="1" vertex="1">
                    <mxGeometry x="140" y="150" width="250" height="130" as="geometry"/>
                </mxCell>
                <mxCell id="3" value="ENC" style="ellipse;whiteSpace=wrap;html=1;aspect=fixed;" parent="1" vertex="1">
                    <mxGeometry x="150" y="165" width="65" height="65" as="geometry"/>
                </mxCell>
                <mxCell id="4" value="Screen" style="rounded=0;whiteSpace=wrap;html=1;" parent="1" vertex="1">
                    <mxGeometry x="230" y="165" width="140" height="100" as="geometry"/>
                </mxCell>
                <mxCell id="6" value="BTN" style="rounded=1;whiteSpace=wrap;html=1;" parent="1" vertex="1">
                    <mxGeometry x="167.5" y="235" width="30" height="30" as="geometry"/>
                </mxCell>
                <mxCell id="7" value="&lt;h1&gt;Hardware Inputs&lt;/h1&gt;&lt;div&gt;Encoder CW (ENC+)&lt;/div&gt;&lt;div&gt;Encodre CCW (ENC-)&lt;/div&gt;&lt;div&gt;Encoder button (ENC_BTN)&lt;/div&gt;&lt;div&gt;Second button (BTN)&lt;/div&gt;" style="text;html=1;strokeColor=none;fillColor=none;spacing=5;spacingTop=-20;whiteSpace=wrap;overflow=hidden;rounded=0;" vertex="1" parent="1">
                    <mxGeometry x="140" y="295" width="230" height="120" as="geometry"/>
                </mxCell>
                <mxCell id="39" style="edgeStyle=none;html=1;entryX=0.75;entryY=0;entryDx=0;entryDy=0;" edge="1" parent="1" source="11" target="33">
                    <mxGeometry relative="1" as="geometry"/>
                </mxCell>
                <mxCell id="11" value="" style="rounded=1;whiteSpace=wrap;html=1;" vertex="1" parent="1">
                    <mxGeometry x="640" y="330" width="210" height="140" as="geometry"/>
                </mxCell>
                <mxCell id="9" value="&lt;h1&gt;Tuner&lt;/h1&gt;&lt;p&gt;&lt;span style=&quot;background-color: initial;&quot;&gt;display:&amp;nbsp;&lt;/span&gt;&lt;/p&gt;&lt;p&gt;&lt;span style=&quot;background-color: initial;&quot;&gt;current note / Hz, tuning needle, reference Hz...&lt;/span&gt;&lt;br&gt;&lt;/p&gt;" style="text;html=1;strokeColor=none;fillColor=none;spacing=5;spacingTop=-20;whiteSpace=wrap;overflow=hidden;rounded=0;" vertex="1" parent="1">
                    <mxGeometry x="650" y="340" width="190" height="120" as="geometry"/>
                </mxCell>
                <mxCell id="12" value="" style="rounded=1;whiteSpace=wrap;html=1;" vertex="1" parent="1">
                    <mxGeometry x="640" y="120" width="210" height="140" as="geometry"/>
                </mxCell>
                <mxCell id="13" value="&lt;h1&gt;Tuner Options&lt;/h1&gt;&lt;p&gt;&lt;span style=&quot;background-color: initial;&quot;&gt;display:&amp;nbsp;&lt;/span&gt;&lt;/p&gt;&lt;p&gt;two level menu for tuner options, (may not be necessary since there are very few options)&lt;/p&gt;" style="text;html=1;strokeColor=none;fillColor=none;spacing=5;spacingTop=-20;whiteSpace=wrap;overflow=hidden;rounded=0;" vertex="1" parent="1">
                    <mxGeometry x="650" y="130" width="190" height="120" as="geometry"/>
                </mxCell>
                <mxCell id="15" value="" style="endArrow=classic;html=1;exitX=0.75;exitY=0;exitDx=0;exitDy=0;entryX=0.75;entryY=1;entryDx=0;entryDy=0;" edge="1" parent="1" source="11" target="12">
                    <mxGeometry width="50" height="50" relative="1" as="geometry">
                        <mxPoint x="960" y="315" as="sourcePoint"/>
                        <mxPoint x="1010" y="265" as="targetPoint"/>
                    </mxGeometry>
                </mxCell>
                <mxCell id="18" value="BTN" style="text;html=1;strokeColor=none;fillColor=none;align=center;verticalAlign=middle;whiteSpace=wrap;rounded=0;" vertex="1" parent="1">
                    <mxGeometry x="790" y="280" width="60" height="30" as="geometry"/>
                </mxCell>
                <mxCell id="19" value="" style="endArrow=classic;html=1;exitX=0.25;exitY=1;exitDx=0;exitDy=0;entryX=0.25;entryY=0;entryDx=0;entryDy=0;" edge="1" parent="1" source="12" target="11">
                    <mxGeometry width="50" height="50" relative="1" as="geometry">
                        <mxPoint x="830" y="370" as="sourcePoint"/>
                        <mxPoint x="880" y="320" as="targetPoint"/>
                    </mxGeometry>
                </mxCell>
                <mxCell id="20" value="BTN&lt;br&gt;(when at top menu)" style="text;html=1;strokeColor=none;fillColor=none;align=center;verticalAlign=middle;whiteSpace=wrap;rounded=0;" vertex="1" parent="1">
                    <mxGeometry x="570" y="280" width="119" height="30" as="geometry"/>
                </mxCell>
                <mxCell id="21" value="" style="endArrow=classic;html=1;exitX=1;exitY=0.75;exitDx=0;exitDy=0;entryX=1;entryY=0.25;entryDx=0;entryDy=0;" edge="1" parent="1" source="12" target="12">
                    <mxGeometry width="50" height="50" relative="1" as="geometry">
                        <mxPoint x="870" y="220" as="sourcePoint"/>
                        <mxPoint x="920" y="170" as="targetPoint"/>
                        <Array as="points">
                            <mxPoint x="920" y="225"/>
                            <mxPoint x="920" y="155"/>
                        </Array>
                    </mxGeometry>
                </mxCell>
                <mxCell id="23" value="" style="rounded=1;whiteSpace=wrap;html=1;" vertex="1" parent="1">
                    <mxGeometry x="640" y="540" width="210" height="140" as="geometry"/>
                </mxCell>
                <mxCell id="24" value="&lt;h1&gt;Metronome&lt;/h1&gt;&lt;p&gt;&lt;span style=&quot;background-color: initial;&quot;&gt;display:&amp;nbsp;&lt;/span&gt;&lt;/p&gt;&lt;p&gt;&lt;span style=&quot;background-color: initial;&quot;&gt;current bpm, metronome indicator,&amp;nbsp;&lt;/span&gt;&lt;br&gt;&lt;/p&gt;" style="text;html=1;strokeColor=none;fillColor=none;spacing=5;spacingTop=-20;whiteSpace=wrap;overflow=hidden;rounded=0;" vertex="1" parent="1">
                    <mxGeometry x="650" y="550" width="190" height="120" as="geometry"/>
                </mxCell>
                <mxCell id="25" value="" style="endArrow=classic;html=1;exitX=1;exitY=0.75;exitDx=0;exitDy=0;entryX=1;entryY=0.25;entryDx=0;entryDy=0;" edge="1" parent="1">
                    <mxGeometry width="50" height="50" relative="1" as="geometry">
                        <mxPoint x="850" y="645" as="sourcePoint"/>
                        <mxPoint x="850" y="575" as="targetPoint"/>
                        <Array as="points">
                            <mxPoint x="920" y="645"/>
                            <mxPoint x="920" y="575"/>
                        </Array>
                    </mxGeometry>
                </mxCell>
                <mxCell id="26" value="ENC+ : bpm increase&lt;br&gt;ENC- : bpm decrease&lt;br&gt;ENC_BTN : start / stop metronome" style="text;html=1;strokeColor=none;fillColor=none;align=left;verticalAlign=middle;whiteSpace=wrap;rounded=0;" vertex="1" parent="1">
                    <mxGeometry x="930" y="595" width="220" height="30" as="geometry"/>
                </mxCell>
                <mxCell id="27" value="" style="endArrow=classic;html=1;exitX=0.75;exitY=0;exitDx=0;exitDy=0;entryX=0.75;entryY=1;entryDx=0;entryDy=0;" edge="1" parent="1">
                    <mxGeometry width="50" height="50" relative="1" as="geometry">
                        <mxPoint x="797.5" y="540" as="sourcePoint"/>
                        <mxPoint x="797.5" y="470" as="targetPoint"/>
                    </mxGeometry>
                </mxCell>
                <mxCell id="28" value="ENC_BTN hold" style="text;html=1;strokeColor=none;fillColor=none;align=center;verticalAlign=middle;whiteSpace=wrap;rounded=0;" vertex="1" parent="1">
                    <mxGeometry x="800" y="490" width="100" height="30" as="geometry"/>
                </mxCell>
                <mxCell id="31" value="" style="endArrow=classic;html=1;exitX=1;exitY=0.75;exitDx=0;exitDy=0;entryX=1;entryY=0.25;entryDx=0;entryDy=0;" edge="1" parent="1">
                    <mxGeometry width="50" height="50" relative="1" as="geometry">
                        <mxPoint x="850" y="435" as="sourcePoint"/>
                        <mxPoint x="850" y="365" as="targetPoint"/>
                        <Array as="points">
                            <mxPoint x="920" y="435"/>
                            <mxPoint x="920" y="365"/>
                        </Array>
                    </mxGeometry>
                </mxCell>
                <mxCell id="32" value="ENC+ : reference Hz increase&lt;br&gt;ENC- : reference Hz decrease" style="text;html=1;strokeColor=none;fillColor=none;align=left;verticalAlign=middle;whiteSpace=wrap;rounded=0;" vertex="1" parent="1">
                    <mxGeometry x="930" y="385" width="220" height="30" as="geometry"/>
                </mxCell>
                <mxCell id="36" style="edgeStyle=none;html=1;entryX=0;entryY=0.5;entryDx=0;entryDy=0;" edge="1" parent="1" source="33" target="23">
                    <mxGeometry relative="1" as="geometry"/>
                </mxCell>
                <mxCell id="33" value="" style="rounded=1;whiteSpace=wrap;html=1;" vertex="1" parent="1">
                    <mxGeometry x="310" y="540" width="210" height="140" as="geometry"/>
                </mxCell>
                <mxCell id="34" value="&lt;h1&gt;Prompter&lt;/h1&gt;&lt;p&gt;&lt;span style=&quot;background-color: initial;&quot;&gt;display:&amp;nbsp;&lt;/span&gt;&lt;/p&gt;&lt;p&gt;&lt;span style=&quot;background-color: initial;&quot;&gt;current chord, next chord, bpm...&lt;br&gt;&lt;/span&gt;maybe combine with Metronome mode?&lt;/p&gt;" style="text;html=1;strokeColor=none;fillColor=none;spacing=5;spacingTop=-20;whiteSpace=wrap;overflow=hidden;rounded=0;" vertex="1" parent="1">
                    <mxGeometry x="320" y="550" width="190" height="120" as="geometry"/>
                </mxCell>
                <mxCell id="37" value="ENC_BTN hold" style="text;html=1;strokeColor=none;fillColor=none;align=center;verticalAlign=middle;whiteSpace=wrap;rounded=0;" vertex="1" parent="1">
                    <mxGeometry x="530" y="610" width="100" height="30" as="geometry"/>
                </mxCell>
                <mxCell id="40" value="ENC_BTN hold" style="text;html=1;strokeColor=none;fillColor=none;align=center;verticalAlign=middle;whiteSpace=wrap;rounded=0;" vertex="1" parent="1">
                    <mxGeometry x="470" y="460" width="100" height="30" as="geometry"/>
                </mxCell>
                <mxCell id="44" value="" style="rounded=1;whiteSpace=wrap;html=1;" vertex="1" parent="1">
                    <mxGeometry x="640" y="750" width="210" height="140" as="geometry"/>
                </mxCell>
                <mxCell id="45" value="&lt;h1&gt;&lt;font style=&quot;font-size: 19px;&quot;&gt;Metronome Options&lt;/font&gt;&lt;/h1&gt;&lt;p&gt;&lt;span style=&quot;background-color: initial;&quot;&gt;display:&amp;nbsp;&lt;/span&gt;&lt;/p&gt;&lt;p&gt;two level menu for options, ex, beep sound, vibration mode, ...&lt;/p&gt;" style="text;html=1;strokeColor=none;fillColor=none;spacing=5;spacingTop=-20;whiteSpace=wrap;overflow=hidden;rounded=0;" vertex="1" parent="1">
                    <mxGeometry x="650" y="760" width="190" height="120" as="geometry"/>
                </mxCell>
                <mxCell id="46" value="" style="endArrow=classic;html=1;exitX=1;exitY=0.75;exitDx=0;exitDy=0;entryX=1;entryY=0.25;entryDx=0;entryDy=0;" edge="1" parent="1" source="44" target="44">
                    <mxGeometry width="50" height="50" relative="1" as="geometry">
                        <mxPoint x="870" y="850" as="sourcePoint"/>
                        <mxPoint x="920" y="800" as="targetPoint"/>
                        <Array as="points">
                            <mxPoint x="920" y="855"/>
                            <mxPoint x="920" y="785"/>
                        </Array>
                    </mxGeometry>
                </mxCell>
                <mxCell id="47" value="&lt;div style=&quot;&quot;&gt;&lt;span style=&quot;background-color: initial;&quot;&gt;ENC+ / ENC-&amp;nbsp; : adjust options&lt;/span&gt;&lt;/div&gt;&lt;div style=&quot;&quot;&gt;&lt;span style=&quot;background-color: initial;&quot;&gt;ENC_BTN : enter / confirm&lt;/span&gt;&lt;/div&gt;&lt;div style=&quot;&quot;&gt;&lt;span style=&quot;background-color: initial;&quot;&gt;BTN : back&lt;/span&gt;&lt;/div&gt;" style="text;html=1;strokeColor=none;fillColor=none;align=left;verticalAlign=middle;whiteSpace=wrap;rounded=0;" vertex="1" parent="1">
                    <mxGeometry x="930" y="805" width="200" height="30" as="geometry"/>
                </mxCell>
                <mxCell id="48" value="" style="endArrow=classic;html=1;exitX=0.75;exitY=0;exitDx=0;exitDy=0;entryX=0.75;entryY=1;entryDx=0;entryDy=0;" edge="1" parent="1">
                    <mxGeometry width="50" height="50" relative="1" as="geometry">
                        <mxPoint x="797.5" y="750" as="sourcePoint"/>
                        <mxPoint x="797.5" y="680" as="targetPoint"/>
                    </mxGeometry>
                </mxCell>
                <mxCell id="49" value="BTN" style="text;html=1;strokeColor=none;fillColor=none;align=center;verticalAlign=middle;whiteSpace=wrap;rounded=0;" vertex="1" parent="1">
                    <mxGeometry x="629" y="700" width="60" height="30" as="geometry"/>
                </mxCell>
                <mxCell id="50" value="" style="endArrow=classic;html=1;exitX=0.25;exitY=1;exitDx=0;exitDy=0;entryX=0.25;entryY=0;entryDx=0;entryDy=0;" edge="1" parent="1">
                    <mxGeometry width="50" height="50" relative="1" as="geometry">
                        <mxPoint x="692.5" y="680" as="sourcePoint"/>
                        <mxPoint x="692.5" y="750" as="targetPoint"/>
                    </mxGeometry>
                </mxCell>
                <mxCell id="51" value="BTN&lt;br&gt;(when at top menu)" style="text;html=1;strokeColor=none;fillColor=none;align=center;verticalAlign=middle;whiteSpace=wrap;rounded=0;" vertex="1" parent="1">
                    <mxGeometry x="800" y="700" width="119" height="30" as="geometry"/>
                </mxCell>
                <mxCell id="52" value="&lt;div style=&quot;&quot;&gt;&lt;span style=&quot;background-color: initial;&quot;&gt;ENC+ / ENC-&amp;nbsp; : adjust options&lt;/span&gt;&lt;/div&gt;&lt;div style=&quot;&quot;&gt;&lt;span style=&quot;background-color: initial;&quot;&gt;ENC_BTN : enter / confirm&lt;/span&gt;&lt;/div&gt;&lt;div style=&quot;&quot;&gt;&lt;span style=&quot;background-color: initial;&quot;&gt;BTN : back&lt;/span&gt;&lt;/div&gt;" style="text;html=1;strokeColor=none;fillColor=none;align=left;verticalAlign=middle;whiteSpace=wrap;rounded=0;" vertex="1" parent="1">
                    <mxGeometry x="930" y="175" width="200" height="30" as="geometry"/>
                </mxCell>
                <mxCell id="53" value="" style="rounded=1;whiteSpace=wrap;html=1;" vertex="1" parent="1">
                    <mxGeometry x="311" y="750" width="210" height="140" as="geometry"/>
                </mxCell>
                <mxCell id="54" value="&lt;h1&gt;&lt;font style=&quot;font-size: 21px;&quot;&gt;Prompter Options&lt;/font&gt;&lt;/h1&gt;&lt;div&gt;&lt;font style=&quot;font-size: 21px;&quot;&gt;.......&lt;/font&gt;&lt;/div&gt;" style="text;html=1;strokeColor=none;fillColor=none;spacing=5;spacingTop=-20;whiteSpace=wrap;overflow=hidden;rounded=0;" vertex="1" parent="1">
                    <mxGeometry x="321" y="760" width="190" height="120" as="geometry"/>
                </mxCell>
                <mxCell id="57" value="" style="endArrow=classic;html=1;exitX=0.75;exitY=0;exitDx=0;exitDy=0;entryX=0.75;entryY=1;entryDx=0;entryDy=0;" edge="1" parent="1">
                    <mxGeometry width="50" height="50" relative="1" as="geometry">
                        <mxPoint x="468.5" y="750" as="sourcePoint"/>
                        <mxPoint x="468.5" y="680" as="targetPoint"/>
                    </mxGeometry>
                </mxCell>
                <mxCell id="58" value="BTN" style="text;html=1;strokeColor=none;fillColor=none;align=center;verticalAlign=middle;whiteSpace=wrap;rounded=0;" vertex="1" parent="1">
                    <mxGeometry x="300" y="700" width="60" height="30" as="geometry"/>
                </mxCell>
                <mxCell id="59" value="" style="endArrow=classic;html=1;exitX=0.25;exitY=1;exitDx=0;exitDy=0;entryX=0.25;entryY=0;entryDx=0;entryDy=0;" edge="1" parent="1">
                    <mxGeometry width="50" height="50" relative="1" as="geometry">
                        <mxPoint x="363.5" y="680" as="sourcePoint"/>
                        <mxPoint x="363.5" y="750" as="targetPoint"/>
                    </mxGeometry>
                </mxCell>
                <mxCell id="60" value="BTN&lt;br&gt;(when at top menu)" style="text;html=1;strokeColor=none;fillColor=none;align=center;verticalAlign=middle;whiteSpace=wrap;rounded=0;" vertex="1" parent="1">
                    <mxGeometry x="471" y="700" width="119" height="30" as="geometry"/>
                </mxCell>
            </root>
        </mxGraphModel>
    </diagram>
</mxfile>